<svg width="67" height="70" viewBox="0 0 67 70" fill="none" xmlns="http://www.w3.org/2000/svg">
<path d="M53.5882 30.0106C53.5882 32.908 53.7914 35.8221 53.5494 38.6974C52.8305 47.2308 48.5453 53.5136 41.0707 57.6325C38.8995 58.828 36.549 59.5598 34.1043 59.9294C33.4465 60.0292 32.7295 59.9016 32.0642 59.7612C22.0747 57.6546 14.7775 49.6867 13.5634 39.5548C13.4544 38.6438 13.4193 37.7199 13.4156 36.8015C13.4008 31.9028 13.4211 27.0041 13.3971 22.1054C13.3934 21.2499 13.7094 20.775 14.5077 20.435C20.5742 17.8609 26.626 15.2536 32.6759 12.6407C33.2654 12.3857 33.7865 12.369 34.3852 12.6277C40.4554 15.2499 46.5312 17.859 52.6162 20.4442C53.3868 20.7713 53.6972 21.248 53.688 22.074C53.6602 24.7183 53.6769 27.3645 53.6769 30.0087C53.6473 30.0106 53.6177 30.0106 53.5882 30.0106ZM15.6275 30.9271C15.6275 32.9284 15.6146 34.9315 15.6293 36.9327C15.7051 46.525 21.9213 54.6981 31.1108 57.2481C32.0476 57.5087 33.0935 57.8394 34.0045 57.6713C44.3544 55.7698 51.441 47.1994 51.4613 36.6777C51.4705 32.1449 51.4557 27.6121 51.4742 23.0793C51.4761 22.5785 51.3523 22.3142 50.8589 22.1054C45.2543 19.7291 39.6664 17.3176 34.0618 14.9413C33.7717 14.8175 33.3374 14.8082 33.0492 14.932C27.4243 17.3176 21.8123 19.7346 16.1892 22.1258C15.7605 22.3087 15.6127 22.5249 15.6164 22.9887C15.6386 25.6349 15.6257 28.281 15.6275 30.9271Z" fill="white"/>
<path d="M66.9815 59.9057C66.987 64.9817 62.8903 69.084 57.8197 69.0785C52.7566 69.0748 48.6506 64.9485 48.6728 59.8853C48.6931 54.8388 52.7751 50.7495 57.805 50.7403C62.8681 50.7292 66.9741 54.8314 66.9815 59.9057ZM64.7622 59.9463C64.777 56.112 61.7095 52.9983 57.8789 52.9577C54.0501 52.917 50.894 56.0621 50.8958 59.9149C50.8976 63.7437 53.9947 66.8555 57.8142 66.8647C61.6319 66.874 64.7492 63.7714 64.7622 59.9463Z" fill="black"/>
<path d="M18.4142 59.8868C18.4363 64.9204 14.3525 69.054 9.33375 69.0799C4.24658 69.1058 0.131384 65.0442 0.105514 59.9736C0.0814914 54.8902 4.14864 50.7657 9.21179 50.7399C14.2694 50.714 18.3938 54.8126 18.4142 59.8868ZM16.1912 59.909C16.1875 56.082 13.0905 52.9721 9.26907 52.9592C5.45878 52.9462 2.33773 56.058 2.3248 59.8849C2.31186 63.7433 5.43291 66.8773 9.27831 66.8662C13.0941 66.8532 16.193 63.7359 16.1912 59.909Z" fill="black"/>
<path d="M48.6711 9.48277C48.6878 4.40299 52.7863 0.326603 57.8643 0.333994C62.9237 0.341386 67.0056 4.46951 66.9816 9.54929C66.9557 14.618 62.8184 18.7129 57.7626 18.6722C52.7327 18.6352 48.6545 14.5108 48.6711 9.48277ZM50.896 9.49755C50.8941 13.3226 53.9874 16.4363 57.8107 16.4548C61.6154 16.4751 64.7457 13.3596 64.7623 9.53451C64.779 5.67432 61.6598 2.54034 57.8144 2.54958C53.9948 2.55697 50.8978 5.66693 50.896 9.49755Z" fill="black"/>
<path d="M18.4144 9.492C18.4162 14.5607 14.301 18.6796 9.24529 18.674C4.18584 18.6685 0.0909699 14.5441 0.105753 9.47168C0.120536 4.41962 4.19692 0.339534 9.23235 0.33399C14.3084 0.328446 18.4144 4.42331 18.4144 9.492ZM16.1914 9.50679C16.1951 5.67986 13.0999 2.56251 9.28225 2.54958C5.46271 2.53664 2.34352 5.63182 2.32504 9.45689C2.30656 13.3171 5.4313 16.4677 9.26746 16.4548C13.0888 16.4418 16.1859 13.3337 16.1914 9.50679Z" fill="black"/>
<path d="M65.019 35.8595C65.0006 40.263 64.2466 44.2562 62.6796 48.0905C62.347 48.9054 61.7964 49.214 61.1478 48.9461C60.4973 48.68 60.294 48.0813 60.623 47.2664C62.4135 42.8389 63.1028 38.247 62.6686 33.4924C62.323 29.7191 61.2753 26.1472 59.5327 22.7822C59.019 21.7899 59.0874 21.145 59.7434 20.7994C60.4031 20.4539 60.9833 20.7643 61.4896 21.74C63.8309 26.2488 64.971 31.0532 65.019 35.8595Z" fill="black"/>
<path d="M1.90164 36.1161C2.11415 30.9735 3.282 26.1284 5.68607 21.5993C5.86901 21.2537 6.25706 20.8823 6.61185 20.8028C6.92598 20.7326 7.49882 20.9618 7.6448 21.2297C7.82774 21.566 7.84252 22.1499 7.66883 22.4973C6.62478 24.5799 5.75813 26.7216 5.19454 28.9815C3.68668 35.0277 4.0544 40.9612 6.27184 46.782C6.33652 46.9538 6.41043 47.122 6.47326 47.2938C6.77261 48.1032 6.5675 48.7019 5.90412 48.9532C5.26845 49.1953 4.68637 48.9126 4.42398 48.1161C3.8382 46.3311 3.16558 44.5553 2.79231 42.7222C2.35067 40.5528 2.18806 38.3224 1.90164 36.1161Z" fill="black"/>
<path d="M33.1988 67.6829C29.2203 67.6478 25.0571 66.831 21.0823 65.0977C20.2822 64.7485 19.9736 64.1886 20.2397 63.5566C20.5113 62.9117 21.1267 62.7066 21.9231 63.0484C25.9551 64.7817 30.1627 65.5837 34.5496 65.434C37.957 65.3176 41.2462 64.6321 44.4116 63.3607C44.5816 63.2924 44.7498 63.2147 44.9272 63.1667C45.5647 62.9912 46.1449 63.2609 46.3445 63.8153C46.5496 64.3844 46.3149 64.9924 45.6885 65.2197C44.2453 65.7463 42.8003 66.2877 41.3201 66.6906C38.783 67.378 36.1775 67.6607 33.1988 67.6829Z" fill="black"/>
<path d="M33.5517 4.63037C37.6779 4.74863 41.6434 5.51365 45.4519 7.07879C46.2576 7.40956 46.5625 8.05816 46.2225 8.69567C45.9268 9.25003 45.3632 9.3609 44.6074 9.13731C42.499 8.51828 40.4072 7.77359 38.2545 7.3763C33.1728 6.44313 28.1892 7.01042 23.3404 8.78437C23.0595 8.886 22.7878 9.0135 22.5051 9.10405C21.8399 9.31471 21.2356 9.05231 21.0231 8.47393C20.8069 7.88446 21.0582 7.25064 21.7383 7.04553C23.9317 6.38584 26.1195 5.67811 28.3555 5.20321C30.0518 4.84288 31.8165 4.80961 33.5517 4.63037Z" fill="black"/>
<path d="M24.8225 31.6166C24.8225 30.9218 24.8133 30.2159 24.8244 29.5082C24.8909 25.1047 28.2319 21.3905 32.5448 20.9175C36.939 20.437 41.0024 23.2846 42.028 27.6012C42.1906 28.2868 42.2146 29.0093 42.2571 29.7189C42.2941 30.3342 42.2645 30.9551 42.2645 31.6222C42.477 31.6462 42.6489 31.6776 42.8226 31.6868C44.4099 31.7737 45.3819 32.7937 45.3874 34.4254C45.3985 37.576 45.3911 40.7266 45.3911 43.879C45.3911 45.4885 45.3948 47.0999 45.3893 48.7094C45.3837 50.5258 44.3766 51.544 42.5787 51.5458C36.5528 51.5495 30.5269 51.5495 24.501 51.5458C22.703 51.544 21.696 50.5258 21.6941 48.7057C21.6904 44.0361 21.6923 39.3684 21.6923 34.6989C21.6923 32.6939 22.5312 31.8088 24.5398 31.6813C24.61 31.6758 24.6747 31.6517 24.8225 31.6166ZM33.5112 49.3302C36.4549 49.3302 39.4003 49.3155 42.344 49.3432C42.9649 49.3487 43.1903 49.1898 43.1866 48.5338C43.1626 43.9345 43.1644 39.3333 43.1848 34.734C43.1885 34.1168 43.0296 33.8895 42.3736 33.8913C36.4863 33.9135 30.5971 33.9117 24.7098 33.895C24.1241 33.8932 23.9005 34.0503 23.9023 34.6711C23.9245 39.2945 23.9263 43.9179 23.9005 48.5412C23.8968 49.2046 24.137 49.3506 24.7486 49.345C27.6701 49.3155 30.5897 49.3302 33.5112 49.3302ZM28.3058 31.6591C28.3058 30.8627 28.2836 30.1291 28.3095 29.3973C28.4129 26.5923 30.7819 24.3379 33.587 24.3564C36.3569 24.3767 38.6815 26.6348 38.7758 29.4177C38.8016 30.1642 38.7795 30.9144 38.7795 31.6499C39.2544 31.6499 39.6147 31.6499 40.0323 31.6499C40.0323 30.8183 40.0582 30.0182 40.0286 29.2218C39.89 25.4484 36.2054 22.4919 32.5004 23.1774C28.8657 23.85 26.3988 26.9434 27.1268 31.6591C27.4853 31.6591 27.8457 31.6591 28.3058 31.6591ZM36.5491 31.6517C36.5491 30.8202 36.6212 30.0164 36.5343 29.2273C36.3699 27.7398 35.1022 26.6237 33.6387 26.5738C32.1992 26.5258 30.8614 27.5162 30.623 28.9779C30.4826 29.8408 30.5971 30.7444 30.5971 31.6517C32.5688 31.6517 34.5331 31.6517 36.5491 31.6517Z" fill="white"/>
<path d="M56.2806 60.7662C57.7903 59.4007 59.1651 58.1478 60.551 56.9097C61.1848 56.3424 61.9387 56.3923 62.3305 57.0095C62.6631 57.5325 62.5763 58.0388 62.1383 58.4416C60.4642 59.979 58.7807 61.5072 57.0826 63.0188C56.5892 63.4586 56.0163 63.4308 55.534 62.9726C54.8356 62.3092 54.1518 61.6273 53.4866 60.9288C53.0283 60.4484 53.032 59.8183 53.4441 59.3803C53.8821 58.9147 54.527 58.8832 55.0388 59.3729C55.4823 59.7961 55.8611 60.2895 56.2806 60.7662Z" fill="black"/>
<path d="M7.8332 60.6522C9.11561 59.4917 10.4091 58.322 11.7026 57.1523C11.8209 57.0452 11.9355 56.9288 12.0611 56.829C12.6062 56.3929 13.2493 56.415 13.6632 56.8807C14.0771 57.3464 14.0383 57.982 13.532 58.4773C13.0719 58.9263 12.5841 59.3458 12.1092 59.7782C10.969 60.8111 9.83443 61.8496 8.68691 62.8733C7.99396 63.4905 7.47471 63.4776 6.82611 62.8438C6.21816 62.2506 5.61576 61.65 5.0226 61.0421C4.45161 60.4563 4.4165 59.8244 4.90618 59.3458C5.39402 58.869 6.00936 58.9189 6.60622 59.4917C6.98688 59.8558 7.36199 60.229 7.73896 60.5968C7.75374 60.6115 7.77591 60.6189 7.8332 60.6522Z" fill="black"/>
<path d="M56.2938 10.342C57.6649 9.09842 58.9214 7.96013 60.178 6.82C60.348 6.66663 60.5143 6.50586 60.6972 6.36727C61.1869 5.994 61.8004 6.02172 62.1977 6.42456C62.632 6.8662 62.6708 7.5148 62.1866 7.96568C60.4884 9.54375 58.7699 11.1015 57.0348 12.6408C56.5562 13.0658 56 13.0011 55.5399 12.565C54.8414 11.9016 54.1577 11.2198 53.4924 10.5213C53.0138 10.0187 53.0305 9.35527 53.4832 8.92102C53.9193 8.5034 54.5494 8.48492 55.0298 8.94504C55.477 9.37375 55.8632 9.86158 56.2938 10.342Z" fill="black"/>
<path d="M7.75016 10.312C9.21552 8.9871 10.5829 7.76197 11.9356 6.5202C12.392 6.10074 12.878 5.94367 13.4323 6.27629C14.0458 6.64586 14.1512 7.47185 13.5913 7.9911C11.9097 9.5544 10.2023 11.09 8.48931 12.6182C8.00886 13.045 7.46005 13.0191 6.99624 12.583C6.27742 11.9067 5.57523 11.2101 4.89891 10.4913C4.4351 9.99788 4.45727 9.38439 4.88598 8.9446C5.32577 8.49372 5.97437 8.48264 6.48438 8.96678C6.91493 9.37885 7.30298 9.83527 7.75016 10.312Z" fill="black"/>
<path d="M31.0241 43.9527C31.0241 43.6996 31.0112 43.4464 31.026 43.1951C31.074 42.4486 30.9225 41.8314 30.4254 41.1865C29.2206 39.6232 29.5773 37.3891 31.0944 36.1104C32.5763 34.8612 34.7845 34.937 36.1834 36.2822C37.6099 37.6533 37.7855 39.8763 36.5178 41.4027C36.1593 41.8351 36.0466 42.2453 36.0596 42.7682C36.0817 43.6866 36.0854 44.6069 36.0577 45.5252C36.0134 46.9573 34.9398 48.0051 33.552 48.0088C32.1606 48.0125 31.0833 46.9629 31.0315 45.54C31.013 45.0115 31.0278 44.4831 31.0278 43.9546C31.026 43.9527 31.026 43.9527 31.0241 43.9527ZM33.2416 43.4057C33.2416 43.9342 33.2065 44.4646 33.2564 44.9875C33.2804 45.2536 33.4559 45.5049 33.5631 45.7618C33.6573 45.5142 33.8273 45.2684 33.8347 45.0189C33.8661 44.034 33.8735 43.0454 33.8403 42.0605C33.8144 41.3084 33.9548 40.7042 34.609 40.1979C35.3297 39.6398 35.313 38.5791 34.694 37.9342C34.075 37.2912 33.0402 37.2819 32.41 37.9139C31.7762 38.5496 31.7393 39.6195 32.4562 40.1757C33.1307 40.6986 33.297 41.3214 33.2453 42.0975C33.2175 42.5317 33.2416 42.9697 33.2416 43.4057Z" fill="white"/>
</svg>
