<svg width="91" height="70" viewBox="0 0 91 70" fill="none" xmlns="http://www.w3.org/2000/svg">
<path d="M78.2342 19.4648C53.4255 19.4648 28.7296 19.4648 3.88591 19.4648C3.88591 19.822 3.88591 20.1739 3.88591 20.5285C3.88591 30.3649 3.88322 40.1987 3.88591 50.0352C3.88591 53.4465 5.82795 55.3966 9.26346 55.3993C22.0869 55.4073 34.9103 55.402 47.7337 55.4047C48.1688 55.4047 48.6147 55.3885 49.0364 55.4745C49.8261 55.633 50.2478 56.1675 50.264 56.9706C50.2828 57.7711 49.8906 58.3244 49.1089 58.5286C48.7571 58.6199 48.3783 58.6226 48.0103 58.6226C35.1198 58.628 22.2292 58.6333 9.34136 58.6226C4.01215 58.6172 0.662598 55.2542 0.662598 49.9411C0.662598 36.1776 0.662598 22.4141 0.665284 8.65324C0.665284 3.38045 4.00947 0.00671523 9.26077 0.00402914C30.4755 -0.00134305 51.6903 -0.00134305 72.905 0.00402914C78.1026 0.00671523 81.4548 3.38045 81.4575 8.58609C81.4629 14.3585 81.4575 20.1336 81.4575 25.906C81.4575 26.1075 81.4629 26.3089 81.4548 26.5104C81.4092 27.5284 80.7618 28.2241 79.8593 28.2295C78.9675 28.2348 78.2611 27.5338 78.245 26.5238C78.2154 24.6785 78.2342 22.8304 78.2342 20.9851C78.2342 20.515 78.2342 20.0476 78.2342 19.4648ZM78.1832 10.4046C78.1832 9.27641 78.2987 8.25839 78.1617 7.27528C77.8044 4.73961 75.7738 3.22465 72.8701 3.22465C51.9589 3.22197 31.0477 3.22197 10.1364 3.22465C9.49984 3.22465 8.85786 3.21122 8.22394 3.26763C6.29264 3.43685 4.57623 4.75035 4.14109 6.62793C3.85905 7.83667 3.91008 9.12331 3.8107 10.4046C28.7188 10.4046 53.4147 10.4046 78.1832 10.4046ZM78.1886 13.7326C53.3771 13.7326 28.6597 13.7326 3.93426 13.7326C3.93426 14.5734 3.93426 15.3335 3.93426 16.1421C28.7027 16.1421 53.4228 16.1421 78.1886 16.1421C78.1886 15.3255 78.1886 14.5653 78.1886 13.7326Z" fill="black"/>
<path d="M50.6184 43.556C50.9569 41.1385 51.2819 38.7183 51.6391 36.3008C51.7788 35.358 52.3053 34.7912 53.2696 34.4877C58.8593 32.7229 64.4276 30.8937 70.0174 29.1263C70.5223 28.9678 71.1616 28.9544 71.6639 29.1128C77.3182 30.8937 82.9563 32.7283 88.6051 34.528C89.3975 34.7805 89.8649 35.2774 90.0341 36.0564C91.764 44.0744 91.1435 51.7378 86.4777 58.7431C84.1543 62.2297 81.0169 64.8029 77.2403 66.6053C75.5158 67.4272 73.7886 68.2411 72.0803 69.0953C71.2637 69.5036 70.517 69.5412 69.6923 69.106C66.8773 67.626 63.8823 66.428 61.25 64.6767C55.0881 60.5777 51.991 54.5286 51.0321 47.2977C50.9488 46.6664 50.8843 46.0298 50.8521 45.3932C50.8226 44.7916 50.8467 44.1845 50.8467 43.5828C50.7715 43.5748 50.6936 43.564 50.6184 43.556ZM87.7429 42.9408C87.6005 41.7724 87.4152 39.9378 87.1224 38.122C87.066 37.7728 86.6523 37.3189 86.3058 37.2034C81.4359 35.5998 76.5526 34.0338 71.6612 32.5C71.1912 32.3523 70.5949 32.3442 70.1248 32.4919C65.3274 33.9962 60.5569 35.5783 55.7515 37.0529C54.8436 37.3323 54.575 37.8158 54.4461 38.6431C54.0163 41.4125 53.874 44.1845 54.25 46.9673C55.0129 52.6376 57.3444 57.478 61.8302 61.1633C64.433 63.3041 67.5945 64.4242 70.5519 65.915C70.7292 66.0036 71.0354 65.9982 71.2154 65.9069C73.888 64.5155 76.7514 63.382 79.1742 61.6414C85.269 57.2604 87.5146 50.889 87.7429 42.9408Z" fill="white"/>
<path d="M18.0928 44.9478C19.9032 44.9478 21.7163 44.9371 23.5267 44.9532C24.6656 44.964 25.364 45.5522 25.4043 46.4816C25.4446 47.4298 24.7032 48.1524 23.5455 48.1604C19.8898 48.1846 16.2313 48.1846 12.5755 48.1604C11.4716 48.1524 10.7597 47.4674 10.7517 46.5514C10.7436 45.5925 11.4742 44.964 12.6588 44.9532C14.4692 44.9371 16.2823 44.9478 18.0928 44.9478Z" fill="black"/>
<path d="M70.0633 51.346C72.8031 48.9071 75.4274 46.5702 78.0544 44.2333C78.1806 44.1231 78.2988 44.0049 78.4278 43.8975C79.3061 43.1508 80.2892 43.1427 80.9205 43.8787C81.5382 44.5986 81.3959 45.5682 80.5256 46.3499C78.7555 47.9401 76.9719 49.5195 75.1937 51.1016C73.942 52.2163 72.6983 53.3418 71.4359 54.4431C70.3507 55.3913 69.655 55.3725 68.6477 54.3733C67.216 52.9577 65.7951 51.5341 64.3795 50.1051C63.5065 49.224 63.4206 48.2382 64.127 47.5506C64.8657 46.8334 65.7467 46.9247 66.6734 47.8595C67.8016 48.9957 68.9056 50.1534 70.0633 51.346Z" fill="white"/>
</svg>
