<svg width="69" height="69" viewBox="0 0 69 69" fill="none" xmlns="http://www.w3.org/2000/svg">
<path d="M0.844056 61.0603C1.239 59.5793 1.63395 58.0983 2.02713 56.6172C2.2246 55.8732 2.36918 55.1115 2.62131 54.3868C3.60338 51.564 5.52345 49.6422 8.34625 48.676C11.9466 47.4435 15.5593 46.2534 19.1773 45.0721C20.0624 44.783 20.7412 44.2805 21.2119 43.4941C22.194 41.8526 22.425 40.0207 22.5061 38.1623C22.5149 37.9719 22.3016 37.7568 22.1605 37.577C21.2278 36.3851 20.2263 35.2408 19.3659 33.9978C18.7083 33.0457 18.4456 31.912 18.435 30.7395C18.4297 30.2105 18.3204 29.7662 17.7703 29.4859C17.5323 29.3642 17.333 29.0328 17.2537 28.7577C16.7988 27.1991 16.3386 25.6369 15.9701 24.0554C15.7162 22.9693 16.12 22.0295 16.8975 21.2308C17.0738 21.0492 17.2078 20.7513 17.2219 20.5009C17.3066 18.8506 17.4423 17.195 17.3894 15.5482C17.2872 12.4398 18.3433 9.75626 20.1911 7.34604C22.626 4.16884 25.6692 1.80446 29.6944 1.13447C33.8608 0.439785 37.7732 1.16268 41.0879 4.0084C41.9836 4.77713 42.6606 5.72394 43.0556 6.85941C43.1226 7.04983 43.2601 7.26317 43.4276 7.36367C45.3389 8.515 46.2063 10.3081 46.3209 12.4274C46.462 15.0422 46.432 17.6675 46.4567 20.2875C46.4602 20.723 46.529 21.0563 46.8746 21.3895C47.2272 21.7298 47.4934 22.1917 47.6927 22.6466C48.0488 23.4612 47.675 24.304 46.894 24.6073C46.1711 24.8876 45.4658 24.5438 45.0814 23.7451C45.0039 23.5846 44.8628 23.3713 44.7165 23.3378C43.8014 23.135 43.6409 22.4844 43.6427 21.691C43.6515 19.3337 43.6639 16.9746 43.6357 14.6173C43.6251 13.7621 43.5475 12.9017 43.4206 12.0554C43.2548 10.9499 42.7082 10.086 41.6415 9.6011C40.9081 9.26787 40.5519 8.68426 40.365 7.88027C40.2398 7.34075 39.8519 6.80651 39.4552 6.39394C37.9513 4.83179 36.0048 4.17237 33.9189 3.84971C27.963 2.93111 21.5117 7.4483 20.3639 13.3866C20.1946 14.2629 20.281 15.1868 20.2422 16.0877C20.1682 17.8703 20.0588 19.6528 20.0289 21.4371C20.013 22.3927 19.7908 23.1386 18.6131 23.4383C18.9727 24.7201 19.3183 25.9614 19.6709 27.2008C19.6939 27.2819 19.7485 27.3666 19.8138 27.4195C20.891 28.3063 21.2067 29.5035 21.2631 30.8312C21.3248 32.2628 22.1482 33.3437 23.0245 34.3698C23.5516 34.9869 24.1934 35.5053 24.7312 36.1153C24.9939 36.4115 25.2936 36.81 25.306 37.1714C25.3888 39.6628 25.0803 42.0994 23.9395 44.3598C23.0879 46.0471 21.7867 47.2038 19.9548 47.7944C16.4585 48.9211 12.9851 50.12 9.49582 51.2661C7.11557 52.0489 5.64687 53.641 5.06856 56.0724C4.75295 57.3983 4.41443 58.7171 4.0618 60.1365C4.37917 60.1365 4.6313 60.1365 4.88343 60.1365C13.6992 60.1365 22.5131 60.1365 31.3289 60.1365C31.5493 60.1365 31.7714 60.1259 31.9901 60.1435C32.7835 60.207 33.3653 60.8311 33.3424 61.5805C33.3195 62.3104 32.7535 62.8781 31.983 62.9363C31.8067 62.9487 31.6304 62.9469 31.4541 62.9469C21.889 62.9469 12.3257 62.9399 2.7606 62.961C1.91076 62.9628 1.26545 62.7424 0.842293 61.9895C0.844056 61.6774 0.844056 61.3689 0.844056 61.0603Z" fill="black"/>
<path d="M51.226 68.5978C49.2125 67.4342 47.1178 66.3904 45.2048 65.0786C41.3524 62.4374 38.1893 59.1403 36.2498 54.8047C35.2571 52.5867 34.7141 50.2628 34.7035 47.8332C34.6841 43.8908 34.6947 39.9484 34.6982 36.006C34.6982 35.0592 34.9962 34.6431 35.8866 34.3416C40.864 32.6596 45.8378 30.9687 50.8275 29.3237C51.3088 29.165 51.9295 29.1562 52.409 29.3149C57.3564 30.944 62.295 32.6085 67.2195 34.3081C67.7149 34.4792 68.1099 34.9446 68.5507 35.2743C68.5507 39.8585 68.5507 44.4427 68.5507 49.0269C68.5101 49.1961 68.4713 49.3654 68.4308 49.5347C68.0958 50.9434 67.8877 52.398 67.3993 53.7504C65.8654 58.0066 62.9756 61.2596 59.4899 64.033C57.1907 65.8632 54.6659 67.3301 52.0212 68.5961C51.7549 68.5978 51.4905 68.5978 51.226 68.5978ZM65.8337 43.1838C65.8019 43.182 65.7702 43.1803 65.7402 43.1803C65.7402 41.2197 65.7296 39.259 65.749 37.3002C65.7526 36.9088 65.6344 36.7201 65.2536 36.5932C60.8545 35.1209 56.4625 33.6276 52.0635 32.1606C51.7972 32.0725 51.4499 32.0813 51.1819 32.1712C46.8022 33.6328 42.4332 35.1227 38.0517 36.5791C37.6074 36.7272 37.4963 36.9335 37.4981 37.3742C37.5157 40.6995 37.5052 44.0266 37.5087 47.3519C37.5122 50.3792 38.3321 53.1756 39.9542 55.7268C42.7452 60.1189 46.7476 63.1091 51.2965 65.4471C51.4993 65.5511 51.8607 65.5088 52.0776 65.3977C55.3923 63.6945 58.4073 61.5752 60.9339 58.8124C63.2806 56.2452 65.072 53.3484 65.5004 49.8379C65.7684 47.6393 65.7314 45.4019 65.8337 43.1838Z" fill="white"/>
<path d="M50.3903 51.0354C50.8258 50.5523 51.1907 50.1132 51.5927 49.7095C54.0171 47.2746 56.4361 44.8361 58.8904 42.433C59.2078 42.1209 59.7261 41.8282 60.1352 41.8476C60.5372 41.867 61.0097 42.2196 61.2918 42.5599C61.6374 42.9742 61.5475 43.5226 61.2442 43.981C61.112 44.1802 60.9339 44.3513 60.7629 44.5223C57.6968 47.5919 54.6289 50.658 51.561 53.7259C50.4714 54.8155 49.7608 54.7715 48.7911 53.5602C47.1267 51.4797 45.4623 49.4009 43.7979 47.3204C43.7009 47.2005 43.6022 47.0806 43.5122 46.9572C42.9956 46.2431 43.0609 45.4585 43.6762 44.9525C44.2986 44.4412 45.1643 44.5329 45.7232 45.217C46.8499 46.5993 47.9536 47.9992 49.0679 49.3921C49.477 49.9034 49.8895 50.413 50.3903 51.0354Z" fill="white"/>
</svg>
